<?xml version="1.0" encoding="utf-8"?>
<!-- Generator: Adobe Illustrator 27.4.1, SVG Export Plug-In . SVG Version: 6.00 Build 0)  -->
<svg version="1.1" id="Layer_1" xmlns="http://www.w3.org/2000/svg" xmlns:xlink="http://www.w3.org/1999/xlink" x="0px" y="0px"
	 viewBox="0 0 64 64" style="enable-background:new 0 0 64 64;" xml:space="preserve">
<style type="text/css">
	.st0{fill:#FFFFFF;}
</style>
<g>
	<path class="st0" d="M32,61.1c-16,0-29-13-29-29s13-29,29-29s29,13,29,29S48,61.1,32,61.1z"/>
	<path d="M32,6.1c14.3,0,26,11.7,26,26s-11.7,26-26,26S6,46.4,6,32.1S17.7,6.1,32,6.1 M32,0.1c-17.7,0-32,14.3-32,32s14.3,32,32,32
		s32-14.3,32-32S49.7,0.1,32,0.1L32,0.1z"/>
</g>
</svg>
